<svg width="21" height="22" viewBox="0 0 21 22" fill="none" xmlns="http://www.w3.org/2000/svg">
<g clip-path="url(#clip0)">
<path d="M12.439 3.94264C10.4986 3.42269 8.47822 3.68584 6.75007 4.68359C5.02192 5.68134 3.78384 7.29946 3.26393 9.23986C2.74398 11.1803 3.00713 13.2006 4.00488 14.9288C5.00263 16.6569 6.62075 17.895 8.56115 18.4149C10.5016 18.9349 12.5219 18.6717 14.2501 17.674C15.9782 16.6762 17.2163 15.0581 17.7362 13.1177C18.2562 11.1773 17.993 9.15694 16.9953 7.42878C15.9975 5.70063 14.3794 4.46255 12.439 3.94264ZM13.8106 16.9128C10.6489 18.7383 6.59148 17.6511 4.76604 14.4893C2.94059 11.3276 4.02776 7.27019 7.18953 5.44475C10.3513 3.6193 14.4087 4.70647 16.2341 7.86824C18.0596 11.03 16.9724 15.0874 13.8106 16.9128Z" fill="#CDC500"/>
<path d="M7.6438 6.23145C4.91574 7.80649 3.97769 11.3073 5.55273 14.0354C7.12778 16.7635 10.6286 17.7015 13.3567 16.1265C16.0847 14.5514 17.0228 11.0506 15.4478 8.32251C13.8727 5.59445 10.3719 4.6564 7.6438 6.23145ZM12.9172 15.3653C10.6089 16.698 7.64662 15.9043 6.31389 13.5959C4.98116 11.2876 5.7749 8.32533 8.08325 6.9926C10.3916 5.65987 13.3539 6.45361 14.6866 8.76196C16.0193 11.0703 15.2256 14.0326 12.9172 15.3653Z" fill="#CDC500"/>
<path d="M10.9802 9.37382C11.1015 9.584 11.3703 9.65602 11.5805 9.53467C11.7907 9.41333 11.8627 9.14455 11.7413 8.93437C11.498 8.51289 11.046 8.23351 10.5013 8.1679C10.1293 8.12307 9.73471 8.17742 9.35765 8.32134L9.12038 7.91036C8.99903 7.70018 8.73026 7.62816 8.52008 7.74951C8.30989 7.87086 8.23788 8.13964 8.35922 8.34982L8.5965 8.76079C8.28331 9.01539 8.03896 9.32991 7.89178 9.67452C7.67625 10.1791 7.69222 10.7102 7.93556 11.1316C8.1789 11.5531 8.63085 11.8325 9.17557 11.8981C9.54763 11.9429 9.94219 11.8886 10.3192 11.7447L11.1895 13.252C10.6892 13.398 10.2022 13.2998 10.0151 12.9756C9.89373 12.7655 9.62495 12.6934 9.41477 12.8148C9.20459 12.9361 9.13257 13.2049 9.25392 13.4151C9.49726 13.8366 9.94921 14.1159 10.4939 14.1816C10.866 14.2264 11.2605 14.172 11.6376 14.0281L11.8771 14.4429C11.9984 14.6531 12.2672 14.7251 12.4774 14.6038C12.6876 14.4824 12.7596 14.2137 12.6382 14.0035L12.3988 13.5887C12.7119 13.3341 12.9563 13.0196 13.1035 12.675C13.319 12.1704 13.303 11.6393 13.0597 11.2178C12.8164 10.7964 12.3644 10.517 11.8197 10.4514C11.4476 10.4065 11.0531 10.4609 10.676 10.6048L9.80577 9.09749C10.3061 8.95153 10.793 9.0497 10.9802 9.37382ZM8.69672 10.6922C8.50958 10.3681 8.66805 9.89721 9.04461 9.53694L9.87112 10.9685C9.37085 11.1145 8.88385 11.0163 8.69672 10.6922ZM12.2985 11.6573C12.4857 11.9814 12.3272 12.4523 11.9506 12.8125L11.1241 11.381C11.6244 11.235 12.1114 11.3332 12.2985 11.6573Z" fill="#CDC500"/>
</g>
<defs>
<clipPath id="clip0">
<rect width="15" height="15" fill="white" transform="translate(0.254883 8.43359) rotate(-30)"/>
</clipPath>
</defs>
</svg>
