<svg width="14" height="14" viewBox="0 0 14 14" fill="none" xmlns="http://www.w3.org/2000/svg">
<path d="M12.6942 10.1328L10.8738 8.27471C10.2237 7.61112 9.11845 7.87658 8.85839 8.73923C8.66335 9.33649 8.01322 9.66829 7.42809 9.53555C6.12782 9.20375 4.37246 7.4784 4.04739 6.08485C3.85235 5.48758 4.24243 4.82399 4.82755 4.62493C5.67273 4.3595 5.93278 3.23138 5.28265 2.56779L3.46226 0.709716C2.94216 0.245199 2.16199 0.245199 1.7069 0.709716L0.471639 1.97055C-0.763619 3.29774 0.601666 6.8148 3.65731 9.9337C6.71294 13.0526 10.1587 14.5125 11.4589 13.1853L12.6942 11.9245C13.1493 11.3936 13.1493 10.5973 12.6942 10.1328Z" fill="#CDC500"/>
</svg>
