<svg width="15" height="16" viewBox="0 0 15 16" fill="none" xmlns="http://www.w3.org/2000/svg">
<g clip-path="url(#clip0)">
<path d="M7.49997 0.913086C4.47615 0.913086 2.01611 3.41733 2.01611 6.49547C2.01611 8.21725 2.88694 10.3071 4.60447 12.7069C5.86137 14.4632 7.09992 15.7158 7.15204 15.7683C7.24784 15.8647 7.37388 15.9131 7.50006 15.9131C7.62258 15.9131 7.74519 15.8674 7.84023 15.7759C7.89247 15.7256 9.13416 14.5237 10.3934 12.7917C12.1123 10.4274 12.9839 8.30907 12.9839 6.49544C12.9838 3.41733 10.5237 0.913086 7.49997 0.913086ZM7.49997 8.90547C6.02165 8.90547 4.81898 7.70277 4.81898 6.22447C4.81898 4.74618 6.02168 3.54348 7.49997 3.54348C8.97827 3.54348 10.181 4.74618 10.181 6.22447C10.181 7.70277 8.97824 8.90547 7.49997 8.90547Z" fill="#CDC500"/>
</g>
<defs>
<clipPath id="clip0">
<rect width="15" height="15" fill="white" transform="translate(0 0.913086)"/>
</clipPath>
</defs>
</svg>
